<svg version="1.1" id="Layer_1" xmlns="http://www.w3.org/2000/svg" xmlns:xlink="http://www.w3.org/1999/xlink" x="0px" y="0px"
	 width="100%" viewBox="0 0 240 210" enable-background="new 0 0 240 210" xml:space="preserve">
<path fill="#FEFEFE" opacity="1.000000" stroke="none" 
	d="
M141.000000,211.000000 
	C94.000000,211.000000 47.500004,211.000000 1.000006,211.000000 
	C1.000004,141.000000 1.000004,71.000015 1.000002,1.000016 
	C80.999992,1.000010 160.999985,1.000010 240.999969,1.000005 
	C240.999985,70.999985 240.999985,140.999969 241.000000,210.999969 
	C207.833328,211.000000 174.666672,211.000000 141.000000,211.000000 
M133.725250,46.474365 
	C132.496887,45.650047 131.268509,44.825733 129.809372,43.203350 
	C130.873596,42.819626 131.937836,42.435902 133.305283,42.636803 
	C134.223251,43.660812 135.141205,44.684826 136.590836,46.301918 
	C136.783707,44.300991 136.890625,43.191696 137.677505,41.749985 
	C138.204285,40.693249 138.731064,39.636509 139.549515,37.994663 
	C133.716660,37.225018 128.678574,36.603443 123.654587,35.883526 
	C119.704262,35.317459 115.771324,34.629997 112.324074,33.278103 
	C116.845322,33.428211 121.366562,33.578320 126.638153,33.808411 
	C127.270088,33.720039 128.400665,33.757046 128.459137,33.524483 
	C129.332916,30.049400 123.402367,20.038380 119.815948,18.523726 
	C108.629662,13.799403 99.956154,19.144171 91.636551,25.590405 
	C84.638847,31.012402 85.554749,38.561954 86.546837,46.059155 
	C86.675896,47.034508 86.730156,48.019760 86.378548,49.383377 
	C86.276016,50.652935 86.173485,51.922497 85.850174,53.379101 
	C85.850174,53.379101 85.574570,53.290943 84.893661,53.105373 
	C84.279907,51.904156 83.666153,50.702934 82.329185,48.086273 
	C82.161667,51.232674 82.066246,53.024750 81.243088,54.980942 
	C65.874649,61.470985 55.316620,73.506737 44.639339,85.878967 
	C39.300819,86.412849 41.177135,89.582275 42.241665,92.779831 
	C42.241665,92.779831 42.000633,92.999603 41.235867,93.009155 
	C35.506607,94.633385 37.389328,98.724304 38.200630,102.989731 
	C38.080658,103.321190 37.960686,103.652649 37.084690,104.020241 
	C32.806492,105.812500 36.097164,108.744354 36.035763,111.605911 
	C35.971146,112.037750 35.906528,112.469589 35.091686,113.106743 
	C35.050278,114.401505 35.008869,115.696274 34.961445,117.824028 
	C35.017071,119.208420 35.072697,120.592812 34.593742,121.704964 
	C31.469553,121.103333 33.261955,123.992378 33.361225,124.032677 
	C36.665573,125.374199 35.431778,127.866035 35.105434,130.181717 
	C35.046150,130.602386 35.612118,131.111176 35.889442,131.579300 
	C36.364342,131.522812 36.839245,131.466324 37.314144,131.409851 
	C37.314144,128.294922 37.314144,125.179985 37.259499,121.364807 
	C38.246632,119.247185 39.233765,117.129562 40.855400,114.930840 
	C42.142830,114.095612 43.430260,113.260391 44.473450,112.583618 
	C45.551910,113.570473 46.364960,114.314461 47.101707,115.744576 
	C46.378315,117.164871 45.654922,118.585175 44.256680,120.314110 
	C42.866394,120.835869 41.476112,121.357628 40.085827,121.879387 
	C40.060806,122.288010 40.035786,122.696625 40.010765,123.105247 
	C41.184269,123.444794 42.357773,123.784332 43.333946,124.840675 
	C42.822380,126.231285 42.310810,127.621895 41.359474,129.391922 
	C41.247562,129.948425 41.135654,130.504913 41.029133,131.786163 
	C37.524902,144.224701 35.000401,156.775650 35.672848,169.831406 
	C35.917934,174.589890 37.625248,178.036255 42.358337,180.555374 
	C43.480152,181.072403 44.601967,181.589432 46.129387,182.634628 
	C46.760662,182.799896 47.391937,182.965149 48.536942,183.642548 
	C59.005863,187.436890 69.561638,190.787613 80.921455,190.232895 
	C81.850349,190.187531 82.964127,190.188950 83.707024,190.639023 
	C93.616394,196.642319 104.739082,198.866058 115.904625,198.798355 
	C129.845047,198.713852 143.827972,197.337631 157.691803,195.677658 
	C167.879837,194.457825 177.905991,191.885910 188.513306,190.017303 
	C188.668655,189.941238 188.823990,189.865158 189.767807,189.832260 
	C197.218597,188.419601 204.669388,187.006927 212.161194,185.586502 
	C212.161194,166.661407 212.161194,148.109024 212.161194,129.653336 
	C210.557999,129.066330 209.215958,128.574936 208.014771,127.378922 
	C206.688599,118.613754 208.834229,109.205994 203.990860,100.881317 
	C202.581757,109.807159 201.250900,118.237312 199.147110,126.785454 
	C187.276077,124.478401 175.428543,122.036896 163.517853,119.956879 
	C160.462311,119.423286 158.399277,118.281281 157.369766,114.781776 
	C155.557495,109.855270 153.745224,104.928764 151.987015,99.145920 
	C151.693878,98.666420 151.400742,98.186920 151.262070,97.535103 
	C151.262070,97.535103 150.949371,97.248299 150.885605,96.547310 
	C148.929779,94.687508 146.973953,92.827705 145.009583,91.006371 
	C145.009583,91.006371 145.038956,90.978233 144.645355,90.422188 
	C140.654663,88.394653 136.661469,86.372017 132.673889,84.338371 
	C127.311569,81.603615 125.581017,76.555412 127.437927,71.018387 
	C129.157928,65.889587 130.243240,60.547928 132.356934,54.898270 
	C138.214478,54.942814 144.072006,54.987358 150.591980,55.354176 
	C152.056229,55.540710 153.520462,55.727249 155.527878,56.111198 
	C155.910629,56.119751 156.293381,56.128300 157.026077,56.471935 
	C157.026077,56.471935 157.469620,56.663216 157.469620,56.663216 
	C157.469620,56.663216 157.951385,56.629208 158.679672,56.973675 
	C160.653030,57.369778 162.626373,57.765877 164.599731,58.161980 
	C164.756271,57.649799 164.912811,57.137619 165.069351,56.625439 
	C158.381378,54.113846 151.693390,51.602257 144.874252,48.731243 
	C144.586014,48.787006 144.297760,48.842773 143.502563,48.995117 
	C143.337448,48.946880 143.172318,48.898647 142.801483,48.097996 
	C139.834213,47.763184 136.866959,47.428371 133.994675,47.073963 
	C133.994675,47.073963 133.933167,47.148949 133.725250,46.474365 
M33.532059,100.762428 
	C33.404827,101.151390 33.256599,101.535683 33.168171,101.933273 
	C33.150600,102.012276 33.362167,102.142235 33.468071,102.248695 
	C33.595123,101.859756 33.722176,101.470818 33.532059,100.762428 
M144.516586,46.412773 
	C144.516586,46.412773 144.581512,46.522274 144.516586,46.412773 
M33.517262,110.413986 
	C33.517262,110.413986 33.582226,110.523689 33.517262,110.413986 
z"/>
<path fill="#0A0B0B" opacity="1.000000" stroke="none" 
	d="
M151.932968,100.002258 
	C153.745224,104.928764 155.557495,109.855270 157.206848,115.546089 
	C155.775452,119.289368 156.299591,120.986694 159.990158,121.084526 
	C162.092987,121.140259 164.259583,121.612076 166.232697,122.341957 
	C167.014328,122.631111 167.349289,124.127716 167.525757,125.132919 
	C166.445953,125.073166 165.727997,124.955032 164.900864,124.455505 
	C162.643845,123.791634 160.496002,123.509163 157.959778,123.307541 
	C151.657440,123.008423 145.745438,122.401398 139.828644,122.350487 
	C137.133347,122.327286 134.454498,123.644798 131.723526,123.937416 
	C121.165100,125.068764 110.588661,126.032204 99.611336,126.994385 
	C97.347885,127.213394 95.492035,127.496231 93.467323,127.747704 
	C93.298462,127.716339 92.984482,127.855659 92.572083,127.818192 
	C91.562233,128.614883 90.455048,129.443008 90.445084,130.284103 
	C90.327759,140.194595 90.274269,150.109680 90.534096,160.014877 
	C90.560020,161.003220 92.754982,161.934662 94.231079,163.064972 
	C97.380249,164.395798 100.241592,165.554169 103.061478,167.044342 
	C102.681328,167.919113 102.342644,168.462097 102.001984,169.002533 
	C102.000000,169.000000 101.994957,168.996094 101.822487,168.759338 
	C100.738876,168.694656 99.827728,168.866714 98.532852,169.028656 
	C85.324829,165.943695 72.500549,162.868851 61.250309,160.171417 
	C61.883331,159.298904 63.834980,157.645264 64.453041,155.590485 
	C68.800697,141.136490 72.873726,126.599884 77.307831,112.107849 
	C77.785942,112.419220 77.990723,112.712418 78.107452,113.331467 
	C78.056847,114.103531 78.094292,114.549744 78.068146,115.370972 
	C78.302269,116.494881 78.599976,117.243782 79.469566,119.431313 
	C80.703156,115.011215 81.529305,112.051041 82.561020,109.016609 
	C82.766586,108.942352 83.007401,108.577538 83.434021,108.605087 
	C102.748909,107.786339 121.634766,106.876236 140.527924,106.159035 
	C143.535568,106.044876 146.576111,106.797455 149.791550,107.171425 
	C149.683533,106.426056 149.504669,105.191902 149.442719,103.842514 
	C149.644730,103.365814 149.495972,103.124748 149.014511,102.814255 
	C148.915649,102.624413 148.909317,102.196365 149.049698,101.893326 
	C150.104370,101.060944 151.018677,100.531601 151.932968,100.002258 
z"/>
<path fill="#111011" opacity="1.000000" stroke="none" 
	d="
M151.959991,99.574089 
	C151.018677,100.531601 150.104370,101.060944 148.785767,101.656174 
	C147.401550,96.499741 142.464340,95.551659 138.805023,92.763847 
	C138.014618,92.364235 137.407440,92.226212 136.455414,92.057373 
	C135.047989,91.581558 133.985428,91.136559 132.795837,90.577301 
	C132.458038,90.666679 132.247253,90.870323 132.015945,91.043816 
	C131.995422,91.013672 132.060959,91.045624 131.626526,91.027458 
	C129.738113,91.029533 128.284134,91.049782 126.479370,91.154556 
	C119.391350,92.603310 121.751648,98.666046 120.614876,103.516670 
	C119.201736,101.089073 118.242935,99.441963 117.150040,97.810699 
	C117.015945,97.826538 117.282013,97.771362 117.206131,97.494095 
	C116.793617,97.047462 116.456978,96.878098 115.862244,96.473740 
	C113.199623,96.228546 110.270844,95.325256 108.486992,96.372383 
	C102.690163,99.775169 98.830772,98.225273 95.720161,92.850716 
	C95.494873,92.461449 94.963142,92.249542 94.544876,91.559753 
	C92.622467,89.111076 91.905243,84.917068 87.499725,87.578819 
	C83.684250,89.884071 78.005272,89.276459 75.544014,94.923927 
	C68.319672,95.249779 61.908226,98.258286 58.041084,106.030533 
	C57.178989,107.558212 56.413837,108.734695 55.425255,110.168648 
	C53.911655,113.025444 52.562458,115.597374 51.341042,118.228622 
	C44.172932,133.670563 40.181412,149.844131 39.982513,166.930481 
	C39.935177,170.996994 40.762402,174.452499 43.982590,176.993500 
	C43.101009,178.115143 42.540733,179.086945 41.980457,180.058762 
	C37.625248,178.036255 35.917934,174.589890 35.672848,169.831406 
	C35.000401,156.775650 37.524902,144.224701 41.246574,131.233475 
	C41.575760,130.124695 41.687500,129.568588 41.799244,129.012497 
	C42.310810,127.621895 42.822380,126.231285 43.616753,124.227173 
	C44.243549,122.410942 44.587543,121.208206 44.931534,120.005470 
	C45.654922,118.585175 46.378315,117.164871 47.415932,115.200256 
	C52.273746,105.161835 57.481289,96.079056 67.177002,90.968895 
	C73.121475,87.835831 79.529839,85.590797 85.669189,82.812820 
	C86.878059,82.265823 88.102570,81.292076 88.807190,80.187965 
	C90.275414,77.887360 91.213242,75.244415 92.712395,72.968307 
	C94.814987,69.776031 94.954262,67.042213 91.623322,64.314178 
	C91.288452,62.934326 91.070084,61.817707 91.183456,60.868584 
	C92.361946,61.778053 93.094795,62.884872 94.077400,63.191605 
	C96.717918,64.015877 97.176842,65.147728 96.986374,68.129875 
	C96.765846,71.582657 98.032005,75.389748 99.541748,78.628624 
	C101.468239,82.761574 105.289680,84.969971 110.173149,86.329483 
	C107.712379,81.593430 105.590591,77.509781 103.468796,73.426132 
	C106.301102,74.073555 108.099899,75.462875 109.967323,76.752861 
	C116.236977,81.083817 119.796982,80.075821 123.362160,72.963531 
	C124.790550,70.653549 126.078201,68.553787 126.946365,66.292946 
	C128.833206,61.379261 130.849869,56.385132 126.997025,51.051796 
	C125.304947,50.836494 123.671265,51.104294 122.054428,51.025688 
	C121.349220,50.991402 120.678543,50.247089 119.992180,49.825226 
	C120.640312,49.498055 121.288437,49.170887 122.231857,48.829445 
	C122.982513,47.558926 123.437874,46.302673 123.978745,44.695339 
	C117.817268,39.939777 110.642128,43.056389 103.993683,41.529179 
	C103.009605,40.118450 102.030083,39.046581 101.268784,37.681801 
	C104.934891,36.258076 108.382774,35.127266 111.830666,33.996460 
	C115.771324,34.629997 119.704262,35.317459 123.654587,35.883526 
	C128.678574,36.603443 133.716660,37.225018 139.549515,37.994663 
	C138.731064,39.636509 138.204285,40.693249 136.947174,41.809204 
	C135.145248,41.929676 134.073654,41.990925 133.002060,42.052174 
	C131.937836,42.435902 130.873596,42.819626 129.847473,44.004951 
	C129.998230,45.617470 130.110870,46.428387 130.115234,47.608002 
	C130.540649,50.417805 131.074356,52.858902 131.608047,55.300003 
	C130.243240,60.547928 129.157928,65.889587 127.437927,71.018387 
	C125.581017,76.555412 127.311569,81.603615 132.673889,84.338371 
	C136.661469,86.372017 140.654663,88.394653 144.554504,90.736580 
	C144.152405,91.446671 143.841141,91.842369 143.529892,92.238068 
	C143.786819,92.326813 144.241180,92.534126 144.270126,92.485939 
	C144.559555,92.004005 144.778976,91.480034 145.018127,90.967911 
	C146.973953,92.827705 148.929779,94.687508 150.935806,96.976898 
	C150.986008,97.406487 151.107590,97.707420 151.107590,97.707420 
	C151.400742,98.186920 151.693878,98.666420 151.959991,99.574089 
M122.106018,88.288750 
	C122.194099,88.335999 122.282188,88.383255 122.370270,88.430504 
	C122.252472,88.282608 122.134674,88.134712 121.891983,87.282288 
	C119.388939,86.316292 119.388939,86.316292 117.182335,92.767990 
	C117.549095,93.015121 117.915848,93.262260 118.282608,93.509392 
	C119.517479,91.678452 120.752350,89.847511 122.106018,88.288750 
M97.022865,87.718857 
	C102.412300,95.317604 103.286140,95.514473 110.243858,90.730133 
	C106.934799,88.621567 103.612083,86.504303 99.677467,83.913628 
	C97.982849,81.575851 96.288231,79.238068 94.530190,76.812798 
	C90.866745,81.385757 94.261177,84.116707 97.022865,87.718857 
M128.643753,85.346237 
	C127.625183,83.831200 126.606606,82.316170 125.588028,80.801140 
	C125.194031,81.112816 124.800026,81.424500 124.406021,81.736176 
	C124.768127,84.085442 124.724976,86.791138 128.643753,85.346237 
M122.412941,80.482910 
	C122.412941,80.482910 122.523582,80.417160 122.412941,80.482910 
z"/>
<path fill="#0E0D0D" opacity="1.000000" stroke="none" 
	d="
M42.169395,180.307068 
	C42.540733,179.086945 43.101009,178.115143 44.308598,177.045654 
	C46.318348,177.694885 47.680790,178.441803 49.221367,179.396729 
	C49.750336,179.694489 50.101181,179.784256 50.605335,179.837234 
	C50.758644,179.800461 50.998833,180.004776 51.075211,180.376907 
	C53.073071,181.179626 54.994553,181.610214 56.944153,182.021011 
	C56.972271,182.001205 56.981941,182.069290 57.194370,182.303452 
	C57.811867,182.636810 58.216934,182.736008 58.848457,182.728241 
	C59.380627,182.739807 59.686333,182.858368 60.219757,183.251556 
	C61.142860,183.633362 61.838242,183.740555 62.911797,183.804321 
	C65.878067,184.260529 68.466164,184.760162 71.288437,185.472046 
	C72.146698,185.743607 72.770790,185.802948 73.803162,185.805740 
	C77.528297,185.096298 80.888748,184.606888 84.147865,183.737595 
	C86.650406,183.070068 89.100052,181.001678 91.440559,181.191559 
	C95.691345,181.536407 96.860374,179.426361 97.598160,176.093933 
	C97.839462,175.004028 98.398849,173.984543 99.058495,172.846436 
	C99.281395,172.196533 99.258568,171.633072 99.195602,170.728134 
	C99.075844,169.937378 98.996216,169.488083 98.916588,169.038788 
	C99.827728,168.866714 100.738876,168.694656 101.685699,168.814789 
	C101.815575,169.072998 101.909767,169.039017 102.003952,169.005066 
	C102.342644,168.462097 102.681328,167.919113 103.330902,167.161087 
	C104.095047,167.314987 104.548309,167.683945 104.999908,168.368332 
	C104.998985,169.104340 104.999725,169.524948 104.647636,170.041016 
	C102.959511,173.281479 99.761459,177.275803 100.718803,179.375443 
	C102.212212,182.650742 106.229424,185.204361 109.718651,187.027618 
	C113.720078,189.118484 118.312317,190.078705 122.527626,191.489853 
	C123.233757,187.407562 124.051857,182.677902 125.252426,177.931473 
	C125.888527,177.886246 126.142159,177.857773 126.578194,177.873047 
	C126.998932,178.043228 127.143394,178.238937 127.144745,178.955322 
	C127.103523,180.312622 127.111572,181.218552 127.078392,182.103821 
	C127.037170,182.083160 127.125259,182.055878 126.855087,182.206329 
	C126.686310,183.584473 126.787697,184.812164 126.927330,186.033340 
	C126.965584,186.026840 126.963287,186.104416 127.054703,186.465179 
	C133.823639,188.192352 140.501160,189.558746 147.389038,190.933731 
	C147.599380,190.942322 148.011429,191.028885 148.236694,191.291107 
	C149.364014,191.678192 150.266052,191.803070 151.560883,191.931091 
	C153.257080,191.937424 154.560455,191.940598 156.310364,191.966095 
	C160.826828,191.054413 164.896805,190.120392 169.274414,189.056458 
	C170.245255,188.907867 170.908432,188.889206 171.999603,188.909546 
	C173.959274,188.599731 175.490921,188.250885 177.130081,187.814331 
	C177.237595,187.726593 177.472260,187.874771 177.968277,187.907486 
	C182.998062,187.682190 187.531830,187.424179 192.518692,187.140396 
	C191.748001,186.089691 191.385590,185.595612 191.346497,184.996994 
	C192.560089,184.855042 193.450348,184.817642 194.709656,184.829422 
	C195.717087,184.595993 196.355484,184.313385 197.248535,183.928680 
	C197.863602,183.842133 198.223999,183.857697 199.009552,183.910919 
	C201.777069,184.076813 204.128159,184.354736 206.455139,184.219101 
	C206.981339,184.188416 207.423706,182.719437 207.918716,181.917084 
	C207.932770,181.921646 207.909515,181.901428 208.237701,181.647705 
	C208.715042,167.857574 208.891388,154.321381 208.997360,140.784637 
	C209.030762,136.516235 210.254395,131.661865 204.188278,130.000198 
	C203.640167,129.850052 203.386536,128.624939 203.403564,127.861824 
	C205.165298,127.910927 206.519608,127.997238 207.873901,128.083542 
	C209.215958,128.574936 210.557999,129.066330 212.161194,129.653336 
	C212.161194,148.109024 212.161194,166.661407 212.161194,185.586502 
	C204.669388,187.006927 197.218597,188.419601 189.268173,189.673294 
	C188.513794,189.648407 188.259033,189.782471 188.004288,189.916550 
	C177.905991,191.885910 167.879837,194.457825 157.691803,195.677658 
	C143.827972,197.337631 129.845047,198.713852 115.904625,198.798355 
	C104.739082,198.866058 93.616394,196.642319 83.707024,190.639023 
	C82.964127,190.188950 81.850349,190.187531 80.921455,190.232895 
	C69.561638,190.787613 59.005863,187.436890 48.089752,183.105682 
	C47.002968,182.414688 46.363373,182.260574 45.723782,182.106461 
	C44.601967,181.589432 43.480152,181.072403 42.169395,180.307068 
M169.517014,191.415329 
	C169.517014,191.415329 169.580246,191.522461 169.517014,191.415329 
z"/>
<path fill="#10A6C4" opacity="1.000000" stroke="none" 
	d="
M90.851715,60.701088 
	C91.070084,61.817707 91.288452,62.934326 91.279755,64.415817 
	C86.092987,67.420067 80.884903,69.684021 76.220703,72.770020 
	C62.830715,81.629318 51.089058,92.161812 43.750771,107.157928 
	C43.329548,107.844360 43.140808,108.368706 42.683014,109.105682 
	C41.682938,111.216194 40.951912,113.114067 40.220894,115.011940 
	C39.233765,117.129562 38.246632,119.247185 37.163116,121.983902 
	C36.420593,122.394409 35.774460,122.185806 35.128326,121.977203 
	C35.072697,120.592812 35.017071,119.208420 35.220314,117.218628 
	C35.600090,115.375961 35.721001,114.138695 35.841911,112.901428 
	C35.906528,112.469589 35.971146,112.037750 36.266998,111.099174 
	C36.945728,108.389664 37.393219,106.186882 37.840710,103.984108 
	C37.960686,103.652649 38.080658,103.321190 38.432846,102.437622 
	C39.776917,98.923546 40.888775,95.961571 42.000633,92.999603 
	C42.000633,92.999603 42.241665,92.779831 42.485435,92.394897 
	C43.199280,91.028214 43.669357,90.046463 44.361359,88.985802 
	C44.675468,88.779755 44.873726,88.594666 44.841419,88.535522 
	C44.703503,88.283066 44.497478,88.067818 44.406090,87.607956 
	C44.762558,86.971931 45.029232,86.566933 45.295914,86.161942 
	C55.316620,73.506737 65.874649,61.470985 81.940262,54.945923 
	C83.616478,54.370918 84.595520,53.830929 85.574570,53.290939 
	C85.574570,53.290943 85.850174,53.379101 86.172424,53.330666 
	C86.494675,53.282234 86.923790,53.220181 87.089340,53.527370 
	C88.493370,54.608585 89.731850,55.382610 90.954544,56.535702 
	C90.909737,58.176872 90.880730,59.438980 90.851715,60.701088 
z"/>
<path fill="#F2F7F8" opacity="1.000000" stroke="none" 
	d="
M40.538147,114.971390 
	C40.951912,113.114067 41.682938,111.216194 42.739174,109.418259 
	C43.734364,109.582558 44.404343,109.646904 45.074326,109.711250 
	C44.710636,108.806114 44.346943,107.900978 43.983250,106.995842 
	C51.089058,92.161812 62.830715,81.629318 76.220703,72.770020 
	C80.884903,69.684021 86.092987,67.420067 91.396255,64.679047 
	C94.954262,67.042213 94.814987,69.776031 92.712395,72.968307 
	C91.213242,75.244415 90.275414,77.887360 88.807190,80.187965 
	C88.102570,81.292076 86.878059,82.265823 85.669189,82.812820 
	C79.529839,85.590797 73.121475,87.835831 67.177002,90.968895 
	C57.481289,96.079056 52.273746,105.161835 47.454082,114.857193 
	C46.364960,114.314461 45.551910,113.570473 44.473450,112.583618 
	C43.430260,113.260391 42.142830,114.095612 40.538147,114.971390 
z"/>
<path fill="#0F0F10" opacity="1.000000" stroke="none" 
	d="
M90.970337,56.156639 
	C89.731850,55.382610 88.493370,54.608585 87.127319,53.099693 
	C86.939522,51.243359 86.879288,50.121895 86.819061,49.000427 
	C86.730156,48.019760 86.675896,47.034508 86.546837,46.059155 
	C85.554749,38.561954 84.638847,31.012402 91.636551,25.590405 
	C99.956154,19.144171 108.629662,13.799403 119.815948,18.523726 
	C123.402367,20.038380 129.332916,30.049400 128.459137,33.524483 
	C128.400665,33.757046 127.270088,33.720039 126.257599,33.414619 
	C123.948639,28.474194 123.661163,22.854450 117.594017,21.103596 
	C110.241478,18.981800 104.538269,21.133591 99.540344,28.008600 
	C97.110687,29.668091 96.987015,30.690563 98.283340,36.358059 
	C98.589806,37.141365 98.811409,37.651188 99.155228,38.391632 
	C99.616844,38.869808 99.956245,39.117367 100.295647,39.364922 
	C100.518570,38.913483 100.741486,38.462048 100.981079,37.990097 
	C100.997742,37.969585 101.050560,37.974712 101.050560,37.974712 
	C102.030083,39.046581 103.009605,40.118450 103.668762,41.628670 
	C102.898689,42.043400 102.448997,42.019783 101.894989,41.828823 
	C101.522141,41.821472 101.253601,41.981464 100.718262,42.310944 
	C100.036339,42.527561 99.621216,42.574696 99.070404,42.302483 
	C98.278427,41.775005 97.622131,41.566879 96.965836,41.358753 
	C97.042442,42.066792 97.119041,42.774830 96.995316,43.760231 
	C96.816643,46.896881 97.240242,49.837307 96.686516,52.580448 
	C96.418777,53.906776 94.314957,54.862476 93.033447,55.643360 
	C92.880089,54.562912 92.735748,53.825089 92.591408,53.087265 
	C92.383530,53.118435 92.175644,53.149605 91.967758,53.180775 
	C91.967758,54.150951 91.967758,55.121132 91.715103,56.057217 
	C91.298409,56.067623 91.134377,56.112129 90.970337,56.156639 
z"/>
<path fill="#0FA1BF" opacity="1.000000" stroke="none" 
	d="
M99.033012,38.161003 
	C98.811409,37.651188 98.589806,37.141365 98.459961,36.028915 
	C99.003357,32.950039 99.455009,30.473791 99.906662,27.997545 
	C104.538269,21.133591 110.241478,18.981800 117.594017,21.103596 
	C123.661163,22.854450 123.948639,28.474194 125.882431,33.374630 
	C121.366562,33.578320 116.845322,33.428211 112.077370,33.637283 
	C108.382774,35.127266 104.934891,36.258076 101.268784,37.681801 
	C101.050560,37.974712 100.997742,37.969585 100.657013,37.973892 
	C99.888535,38.039131 99.460770,38.100067 99.033012,38.161003 
z"/>
<path fill="#14100D" opacity="1.000000" stroke="none" 
	d="
M202.996140,127.899033 
	C203.386536,128.624939 203.640167,129.850052 204.188278,130.000198 
	C210.254395,131.661865 209.030762,136.516235 208.997360,140.784637 
	C208.891388,154.321381 208.715042,167.857574 208.323196,181.192902 
	C208.116226,166.178055 208.097458,151.363739 208.238693,136.550964 
	C208.263657,133.933136 207.537369,132.611298 204.827728,132.181152 
	C196.127869,130.800095 187.455276,129.247192 178.412430,127.543701 
	C174.664337,126.576065 171.275986,125.825310 167.887634,125.074554 
	C167.349289,124.127716 167.014328,122.631111 166.232697,122.341957 
	C164.259583,121.612076 162.092987,121.140259 159.990158,121.084526 
	C156.299591,120.986694 155.775452,119.289368 157.106384,115.918961 
	C158.399277,118.281281 160.462311,119.423286 163.517853,119.956879 
	C175.428543,122.036896 187.276077,124.478401 199.836884,126.855888 
	C201.349823,127.250557 202.172974,127.574799 202.996140,127.899033 
z"/>
<path fill="#19A2BA" opacity="1.000000" stroke="none" 
	d="
M131.982483,55.099136 
	C131.074356,52.858902 130.540649,50.417805 130.480438,47.546783 
	C131.946991,47.127560 132.940079,47.138252 133.933167,47.148949 
	C133.933167,47.148949 133.994675,47.073963 134.242844,47.334911 
	C137.329742,48.014042 140.168472,48.432228 143.007202,48.850410 
	C143.172318,48.898647 143.337448,48.946880 143.996796,49.037430 
	C144.662506,49.083385 144.833969,49.087025 145.005417,49.090668 
	C151.693390,51.602257 158.381378,54.113846 165.069351,56.625439 
	C164.912811,57.137619 164.756271,57.649799 164.599731,58.161980 
	C162.626373,57.765877 160.653030,57.369778 158.146454,56.630150 
	C157.320740,56.112514 157.008377,56.062592 156.676132,56.136848 
	C156.293381,56.128300 155.910629,56.119751 154.992615,55.746815 
	C152.948074,55.265587 151.438812,55.148743 149.929550,55.031898 
	C144.072006,54.987358 138.214478,54.942814 131.982483,55.099136 
z"/>
<path fill="#12A3C2" opacity="1.000000" stroke="none" 
	d="
M203.403564,127.861832 
	C202.172974,127.574799 201.349823,127.250557 200.223358,126.796890 
	C201.250900,118.237312 202.581757,109.807159 203.990860,100.881317 
	C208.834229,109.205994 206.688599,118.613754 207.944336,127.731232 
	C206.519608,127.997238 205.165298,127.910927 203.403564,127.861832 
z"/>
<path fill="#F2F7F8" opacity="1.000000" stroke="none" 
	d="
M34.861034,121.841080 
	C35.774460,122.185806 36.420593,122.394409 37.190437,122.334030 
	C37.314144,125.179985 37.314144,128.294922 37.314144,131.409851 
	C36.839245,131.466324 36.364342,131.522812 35.889442,131.579300 
	C35.612118,131.111176 35.046150,130.602386 35.105434,130.181717 
	C35.431778,127.866035 36.665573,125.374199 33.361225,124.032677 
	C33.261955,123.992378 31.469553,121.103333 34.861034,121.841080 
z"/>
<path fill="#F2F7F8" opacity="1.000000" stroke="none" 
	d="
M41.618248,93.004379 
	C40.888775,95.961571 39.776917,98.923546 38.419289,102.172379 
	C37.389328,98.724304 35.506607,94.633385 41.618248,93.004379 
z"/>
<path fill="#F2F7F8" opacity="1.000000" stroke="none" 
	d="
M44.139435,89.064713 
	C43.669357,90.046463 43.199280,91.028214 42.483421,92.231827 
	C41.177135,89.582275 39.300819,86.412849 44.967625,86.020454 
	C45.029232,86.566933 44.762558,86.971931 44.196545,87.709869 
	C43.795326,88.156731 43.585762,88.335136 43.609085,88.374069 
	C43.757233,88.621437 43.956810,88.837997 44.139435,89.064713 
z"/>
<path fill="#F2F7F8" opacity="1.000000" stroke="none" 
	d="
M37.462700,104.002174 
	C37.393219,106.186882 36.945728,108.389664 36.253410,110.879929 
	C36.097164,108.744354 32.806492,105.812500 37.462700,104.002174 
z"/>
<path fill="#F2F7F8" opacity="1.000000" stroke="none" 
	d="
M44.594109,120.159790 
	C44.587543,121.208206 44.243549,122.410942 43.715416,123.868774 
	C42.357773,123.784332 41.184269,123.444794 40.010765,123.105247 
	C40.035786,122.696625 40.060806,122.288010 40.085827,121.879387 
	C41.476112,121.357628 42.866394,120.835869 44.594109,120.159790 
z"/>
<path fill="#E7F1F1" opacity="1.000000" stroke="none" 
	d="
M85.234116,53.198158 
	C84.595520,53.830929 83.616478,54.370918 82.304138,54.863865 
	C82.066246,53.024750 82.161667,51.232674 82.329185,48.086273 
	C83.666153,50.702934 84.279907,51.904156 85.234116,53.198158 
z"/>
<path fill="#F1FAFA" opacity="1.000000" stroke="none" 
	d="
M133.153671,42.344486 
	C134.073654,41.990925 135.145248,41.929676 136.607208,41.975414 
	C136.890625,43.191696 136.783707,44.300991 136.590836,46.301918 
	C135.141205,44.684826 134.223251,43.660812 133.153671,42.344486 
z"/>
<path fill="#F1FAFA" opacity="1.000000" stroke="none" 
	d="
M142.904343,48.474205 
	C140.168472,48.432228 137.329742,48.014042 134.195343,47.344711 
	C136.866959,47.428371 139.834213,47.763184 142.904343,48.474205 
z"/>
<path fill="#F1FAFA" opacity="1.000000" stroke="none" 
	d="
M133.829208,46.811657 
	C132.940079,47.138252 131.946991,47.127560 130.588715,47.178085 
	C130.110870,46.428387 129.998230,45.617470 129.962860,44.403988 
	C131.268509,44.825733 132.496887,45.650047 133.829208,46.811657 
z"/>
<path fill="#F2F7F8" opacity="1.000000" stroke="none" 
	d="
M35.466797,113.004089 
	C35.721001,114.138695 35.600090,115.375961 35.223320,116.802132 
	C35.008869,115.696274 35.050278,114.401505 35.466797,113.004089 
z"/>
<path fill="#E7F1F1" opacity="1.000000" stroke="none" 
	d="
M86.598801,49.191902 
	C86.879288,50.121895 86.939522,51.243359 86.961777,52.792503 
	C86.923790,53.220181 86.494675,53.282234 86.282822,53.237144 
	C86.173485,51.922497 86.276016,50.652935 86.598801,49.191902 
z"/>
<path fill="#2EA8C1" opacity="1.000000" stroke="none" 
	d="
M150.260773,55.193039 
	C151.438812,55.148743 152.948074,55.265587 154.721024,55.648109 
	C153.520462,55.727249 152.056229,55.540710 150.260773,55.193039 
z"/>
<path fill="#F2F7F8" opacity="1.000000" stroke="none" 
	d="
M33.690643,100.922150 
	C33.722176,101.470818 33.595123,101.859756 33.468071,102.248695 
	C33.362167,102.142235 33.150600,102.012276 33.168171,101.933273 
	C33.256599,101.535683 33.404827,101.151390 33.690643,100.922150 
z"/>
<path fill="#111011" opacity="1.000000" stroke="none" 
	d="
M45.926582,182.370544 
	C46.363373,182.260574 47.002968,182.414688 47.832886,182.849609 
	C47.391937,182.965149 46.760662,182.799896 45.926582,182.370544 
z"/>
<path fill="#F2F7F8" opacity="1.000000" stroke="none" 
	d="
M41.579361,129.202209 
	C41.687500,129.568588 41.575760,130.124695 41.243881,130.871094 
	C41.135654,130.504913 41.247562,129.948425 41.579361,129.202209 
z"/>
<path fill="#F1FAFA" opacity="1.000000" stroke="none" 
	d="
M144.939835,48.910957 
	C144.833969,49.087025 144.662506,49.083385 144.250275,48.989140 
	C144.297760,48.842773 144.586014,48.787006 144.939835,48.910957 
z"/>
<path fill="#2EA8C1" opacity="1.000000" stroke="none" 
	d="
M156.851105,56.304390 
	C157.008377,56.062592 157.320740,56.112514 157.782303,56.457916 
	C157.951385,56.629208 157.469620,56.663216 157.469620,56.663216 
	C157.469620,56.663216 157.026077,56.471935 156.851105,56.304390 
z"/>
<path fill="#F1FAFA" opacity="1.000000" stroke="none" 
	d="
M144.549042,46.467522 
	C144.581512,46.522274 144.516586,46.412773 144.549042,46.467522 
z"/>
<path fill="#14100D" opacity="1.000000" stroke="none" 
	d="
M188.258789,189.966919 
	C188.259033,189.782471 188.513794,189.648407 188.873932,189.651703 
	C188.823990,189.865158 188.668655,189.941238 188.258789,189.966919 
z"/>
<path fill="#0E1517" opacity="1.000000" stroke="none" 
	d="
M151.184830,97.621262 
	C151.107590,97.707420 150.986008,97.406487 150.967682,97.327393 
	C150.949371,97.248299 151.262070,97.535103 151.184830,97.621262 
z"/>
<path fill="#F2F7F8" opacity="1.000000" stroke="none" 
	d="
M33.549744,110.468842 
	C33.582226,110.523689 33.517262,110.413986 33.549744,110.468842 
z"/>
<path fill="#0BA2C3" opacity="1.000000" stroke="none" 
	d="
M98.532852,169.028656 
	C98.996216,169.488083 99.075844,169.937378 99.044769,171.016022 
	C98.893631,172.074524 98.853195,172.503693 98.812759,172.932861 
	C98.398849,173.984543 97.839462,175.004028 97.598160,176.093933 
	C96.860374,179.426361 95.691345,181.536407 91.440559,181.191559 
	C89.100052,181.001678 86.650406,183.070068 84.147865,183.737595 
	C80.888748,184.606888 77.528297,185.096298 73.562592,185.593414 
	C72.293900,185.378372 71.674080,185.319077 71.054260,185.259796 
	C68.466164,184.760162 65.878067,184.260529 62.653088,183.564499 
	C61.341484,183.237717 60.666759,183.107330 59.992043,182.976929 
	C59.686333,182.858368 59.380627,182.739807 58.649498,182.474701 
	C57.810032,182.241852 57.395988,182.155563 56.981941,182.069290 
	C56.981941,182.069290 56.972271,182.001205 56.691677,181.785980 
	C54.606998,181.048752 52.802917,180.526764 50.998833,180.004776 
	C50.998833,180.004776 50.758644,179.800461 50.418694,179.634521 
	C49.733574,179.375290 49.388405,179.282013 49.043236,179.188721 
	C47.680790,178.441803 46.318348,177.694885 44.629898,176.895828 
	C40.762402,174.452499 39.935177,170.996994 39.982513,166.930481 
	C40.181412,149.844131 44.172932,133.670563 51.341042,118.228622 
	C52.562458,115.597374 53.911655,113.025444 55.773811,110.087257 
	C58.130947,108.836716 59.916088,107.925026 61.602661,107.063675 
	C60.210209,111.100098 59.291050,114.348602 57.981991,117.431549 
	C55.619843,122.994629 52.767654,128.360275 50.608437,133.995499 
	C48.905350,138.440277 47.775303,143.130493 46.743019,147.789764 
	C46.454872,149.090332 47.417053,150.667908 47.982307,152.777771 
	C53.873257,136.043716 59.380432,120.399834 64.499763,105.857681 
	C67.737518,103.272552 70.369461,101.171127 73.236160,98.930252 
	C73.827972,98.808411 74.185036,98.826019 74.949768,98.891006 
	C77.225670,98.345772 79.093895,97.753143 81.325699,97.028519 
	C85.984146,95.249405 90.279022,93.602287 94.573891,91.955170 
	C94.963142,92.249542 95.494873,92.461449 95.720161,92.850716 
	C98.830772,98.225273 102.690163,99.775169 108.486992,96.372383 
	C110.270844,95.325256 113.199623,96.228546 115.940552,96.755821 
	C116.611977,97.439056 116.946991,97.605209 117.282013,97.771362 
	C117.282013,97.771362 117.015945,97.826538 117.081863,98.165344 
	C117.167824,99.589478 117.349068,100.702377 117.169289,101.753525 
	C116.914383,103.243874 116.393448,104.688728 115.749313,107.004829 
	C106.673561,107.004829 96.187149,106.966331 85.702209,107.073074 
	C84.798927,107.082268 83.905441,108.053299 83.007401,108.577538 
	C83.007401,108.577538 82.766586,108.942352 82.242126,109.120880 
	C80.156616,110.229492 78.595558,111.159584 77.034500,112.089676 
	C72.873726,126.599884 68.800697,141.136490 64.453041,155.590485 
	C63.834980,157.645264 61.883331,159.298904 61.250309,160.171417 
	C72.500549,162.868851 85.324829,165.943695 98.532852,169.028656 
z"/>
<path fill="#C3872E" opacity="1.000000" stroke="none" 
	d="
M148.011429,191.028885 
	C148.011429,191.028885 147.599380,190.942322 147.171021,190.621918 
	C140.149521,188.902481 133.556412,187.503448 126.963287,186.104416 
	C126.963287,186.104416 126.965584,186.026840 126.897263,185.634338 
	C126.927711,184.179840 127.026489,183.117859 127.125259,182.055878 
	C127.125259,182.055878 127.037170,182.083160 127.469940,182.064896 
	C128.954117,182.036545 130.005524,182.026459 131.020020,182.020309 
	C130.983093,182.024246 130.966232,181.951935 131.067383,182.318512 
	C133.086487,182.980804 135.056061,183.646515 136.896927,183.389664 
	C137.630646,183.287292 138.904343,180.556473 138.526016,180.027084 
	C135.873138,176.314758 132.852600,172.865173 129.700989,169.178131 
	C129.069366,168.967606 128.686401,168.910522 128.064209,168.651367 
	C127.222359,168.333054 126.619743,168.216782 125.635208,167.988098 
	C118.502708,167.934753 111.752136,167.993835 105.001572,168.052917 
	C104.548309,167.683945 104.095047,167.314987 103.372360,166.829285 
	C100.241592,165.554169 97.380249,164.395798 93.993637,162.766983 
	C92.976334,160.666046 92.089912,159.042984 92.059181,157.403854 
	C91.910706,149.484665 91.939697,141.560501 92.037895,133.639755 
	C92.057076,132.092773 92.661552,130.553040 93.408417,129.002914 
	C100.245331,130.028900 106.669914,131.061935 113.108704,132.284225 
	C113.122925,132.473495 113.172119,132.849899 113.114372,133.321381 
	C113.056625,137.049042 113.056625,140.305252 113.056625,143.721039 
	C117.275871,144.258926 120.788124,144.706680 125.051552,145.250214 
	C125.051552,141.301712 125.051552,138.187439 125.468079,135.051666 
	C127.552612,135.002884 129.220612,134.975616 131.090851,135.279388 
	C137.650116,137.075897 143.971542,138.732422 150.379120,139.926651 
	C153.614197,140.529587 155.023788,142.008026 154.973709,145.194382 
	C154.752579,159.263168 154.510437,173.332230 154.449127,187.401947 
	C154.443558,188.677628 155.673553,189.958694 156.226868,191.422836 
	C156.123947,191.608414 155.863846,191.943756 155.863846,191.943756 
	C154.560455,191.940598 153.257080,191.937424 151.437744,191.680984 
	C149.951660,191.294769 148.981552,191.161819 148.011429,191.028885 
M130.088760,146.103958 
	C130.035294,148.416382 129.616089,150.802567 130.062164,153.014236 
	C130.340652,154.395020 131.719757,156.284332 132.958511,156.613068 
	C138.032227,157.959442 143.241760,158.793884 149.159714,159.967133 
	C149.159714,156.596512 149.363602,153.659119 149.042969,150.780136 
	C148.938599,149.842880 147.582443,148.505081 146.597885,148.295807 
	C141.297562,147.169220 135.933975,146.340317 130.088760,146.103958 
z"/>
<path fill="#0CA0C0" opacity="1.000000" stroke="none" 
	d="
M83.434021,108.605087 
	C83.905441,108.053299 84.798927,107.082268 85.702209,107.073074 
	C96.187149,106.966331 106.673561,107.004829 115.749313,107.004829 
	C116.393448,104.688728 116.914383,103.243874 117.169289,101.753525 
	C117.349068,100.702377 117.167824,99.589478 117.215950,98.149506 
	C118.242935,99.441963 119.201736,101.089073 120.614876,103.516670 
	C121.751648,98.666046 119.391350,92.603310 126.788132,91.344978 
	C128.985428,91.315788 130.523193,91.180710 132.060959,91.045624 
	C132.060959,91.045624 131.995422,91.013672 132.256470,90.992142 
	C132.517502,90.970604 132.922852,90.691559 132.922852,90.691559 
	C133.985428,91.136559 135.047989,91.581558 136.662567,92.290680 
	C137.805801,92.711670 138.397034,92.868553 138.988251,93.025436 
	C142.464340,95.551659 147.401550,96.499741 148.645386,101.959213 
	C148.909317,102.196365 148.915649,102.624413 149.004700,103.066681 
	C149.171097,103.658554 149.248444,103.808151 149.325806,103.957748 
	C149.504669,105.191902 149.683533,106.426056 149.791550,107.171425 
	C146.576111,106.797455 143.535568,106.044876 140.527924,106.159035 
	C121.634766,106.876236 102.748909,107.786339 83.434021,108.605087 
z"/>
<path fill="#E7AC26" opacity="1.000000" stroke="none" 
	d="
M113.094490,132.094955 
	C106.669914,131.061935 100.245331,130.028900 93.408875,128.714233 
	C92.992821,128.240295 92.988655,128.047974 92.984482,127.855659 
	C92.984482,127.855659 93.298462,127.716339 93.892082,127.837883 
	C96.330116,127.659019 98.174522,127.358612 100.018936,127.058197 
	C110.588661,126.032204 121.165100,125.068764 131.723526,123.937416 
	C134.454498,123.644798 137.133347,122.327286 139.828644,122.350487 
	C145.745438,122.401398 151.657440,123.008423 158.217896,123.575119 
	C160.257278,124.160309 161.650177,124.558777 162.761292,125.243515 
	C157.600906,126.213768 152.726761,126.931610 147.842804,127.574966 
	C136.262497,129.100418 124.677559,130.590546 113.094490,132.094955 
z"/>
<path fill="#F5D785" opacity="1.000000" stroke="none" 
	d="
M113.108704,132.284225 
	C124.677559,130.590546 136.262497,129.100418 147.842804,127.574966 
	C152.726761,126.931610 157.600906,126.213768 163.089600,125.222214 
	C164.136459,124.888725 164.573257,124.862816 165.010056,124.836906 
	C165.727997,124.955032 166.445953,125.073166 167.525757,125.132919 
	C171.275986,125.825310 174.664337,126.576065 177.937378,127.595551 
	C170.123962,128.934616 162.415085,129.933853 154.730682,131.094971 
	C146.770966,132.297668 138.834976,133.657318 130.888611,134.948334 
	C129.220612,134.975616 127.552612,135.002884 125.055275,135.011414 
	C120.541328,134.278427 116.856720,133.564163 113.172119,132.849899 
	C113.172119,132.849899 113.122925,132.473495 113.108704,132.284225 
z"/>
<path fill="#B38640" opacity="1.000000" stroke="none" 
	d="
M92.572083,127.818192 
	C92.988655,128.047974 92.992821,128.240295 92.996536,128.721283 
	C92.661552,130.553040 92.057076,132.092773 92.037895,133.639755 
	C91.939697,141.560501 91.910706,149.484665 92.059181,157.403854 
	C92.089912,159.042984 92.976334,160.666046 93.705826,162.594513 
	C92.754982,161.934662 90.560020,161.003220 90.534096,160.014877 
	C90.274269,150.109680 90.327759,140.194595 90.445084,130.284103 
	C90.455048,129.443008 91.562233,128.614883 92.572083,127.818192 
z"/>
<path fill="#0CA0C0" opacity="1.000000" stroke="none" 
	d="
M77.307823,112.107849 
	C78.595558,111.159584 80.156616,110.229492 82.036560,109.195137 
	C81.529305,112.051041 80.703156,115.011215 79.469566,119.431313 
	C78.599976,117.243782 78.302269,116.494881 78.349220,115.330551 
	C78.997437,114.605476 79.300987,114.295845 79.604546,113.986206 
	C79.134865,113.659348 78.665184,113.332489 78.195503,113.005623 
	C77.990723,112.712418 77.785942,112.419220 77.307823,112.107849 
z"/>
<path fill="#14100D" opacity="1.000000" stroke="none" 
	d="
M164.900864,124.455505 
	C164.573257,124.862816 164.136459,124.888725 163.371368,124.935944 
	C161.650177,124.558777 160.257278,124.160309 158.606277,123.494263 
	C160.496002,123.509163 162.643845,123.791634 164.900864,124.455505 
z"/>
<path fill="#B38640" opacity="1.000000" stroke="none" 
	d="
M99.611336,126.994385 
	C98.174522,127.358612 96.330116,127.659019 94.060944,127.869247 
	C95.492035,127.496231 97.347885,127.213394 99.611336,126.994385 
z"/>
<path fill="#0BA2C3" opacity="1.000000" stroke="none" 
	d="
M78.107452,113.331467 
	C78.665184,113.332489 79.134865,113.659348 79.604546,113.986206 
	C79.300987,114.295845 78.997437,114.605476 78.412811,114.955536 
	C78.094292,114.549744 78.056847,114.103531 78.107452,113.331467 
z"/>
<path fill="#0E1517" opacity="1.000000" stroke="none" 
	d="
M149.442719,103.842514 
	C149.248444,103.808151 149.171097,103.658554 149.103577,103.256531 
	C149.495972,103.124748 149.644730,103.365814 149.442719,103.842514 
z"/>
<path fill="#E6A285" opacity="1.000000" stroke="none" 
	d="
M99.206085,42.621830 
	C99.621216,42.574696 100.036339,42.527561 100.981506,42.342163 
	C101.674133,42.134659 101.836716,42.065414 101.999298,41.996170 
	C102.448997,42.019783 102.898689,42.043400 103.673317,41.967529 
	C110.642128,43.056389 117.817268,39.939777 123.600967,44.685623 
	C122.129326,45.042908 121.120995,45.058826 119.760742,45.223934 
	C116.424904,49.802761 118.417862,53.444069 120.969971,56.687389 
	C120.719620,58.230431 120.323975,59.566433 120.336655,60.898548 
	C120.349541,62.251938 120.765106,63.601494 120.627937,64.972000 
	C118.859474,65.252678 117.467407,65.514084 115.785187,65.832001 
	C114.981331,66.159950 114.467628,66.431381 113.903122,67.039299 
	C114.604073,67.589539 115.355820,67.803299 116.513954,68.000122 
	C118.272758,67.953148 119.625175,67.923096 121.383286,67.941544 
	C122.203056,69.693596 122.617126,71.397156 123.031197,73.100716 
	C119.796982,80.075821 116.236977,81.083817 109.967323,76.752861 
	C108.099899,75.462875 106.301102,74.073555 103.468796,73.426132 
	C105.590591,77.509781 107.712379,81.593430 110.173149,86.329483 
	C105.289680,84.969971 101.468239,82.761574 99.541748,78.628624 
	C98.032005,75.389748 96.765846,71.582657 96.986374,68.129875 
	C97.176842,65.147728 96.717918,64.015877 94.077400,63.191605 
	C93.094795,62.884872 92.361946,61.778053 91.183456,60.868584 
	C90.880730,59.438980 90.909737,58.176872 90.954544,56.535702 
	C91.134377,56.112129 91.298409,56.067623 91.801575,56.290649 
	C92.441299,56.367447 92.741875,56.176716 93.042458,55.985985 
	C94.314957,54.862476 96.418777,53.906776 96.686516,52.580448 
	C97.240242,49.837307 96.816643,46.896881 97.261215,43.687210 
	C98.220329,43.098495 98.713211,42.860161 99.206085,42.621830 
M111.938698,50.723557 
	C113.201027,49.522320 114.463356,48.321083 115.725685,47.119846 
	C115.485527,46.695763 115.245361,46.271679 115.005203,45.847595 
	C111.748466,45.847595 108.491722,45.847595 105.011505,45.847595 
	C106.101807,49.539597 107.105392,52.284908 111.938698,50.723557 
z"/>
<path fill="#E6F0F1" opacity="1.000000" stroke="none" 
	d="
M74.542091,98.843628 
	C74.185036,98.826019 73.827972,98.808411 72.867592,98.942337 
	C67.555519,101.289032 62.846775,103.484192 58.138027,105.679344 
	C61.908226,98.258286 68.319672,95.249779 75.544014,94.923927 
	C78.005272,89.276459 83.684250,89.884071 87.499725,87.578819 
	C91.905243,84.917068 92.622467,89.111076 94.544876,91.559753 
	C90.279022,93.602287 85.984146,95.249405 80.956345,97.003571 
	C78.329651,97.688286 76.435867,98.265953 74.542091,98.843628 
z"/>
<path fill="#1DA2B9" opacity="1.000000" stroke="none" 
	d="
M58.041084,106.030533 
	C62.846775,103.484192 67.555519,101.289032 72.632843,99.081787 
	C70.369461,101.171127 67.737518,103.272552 64.499763,105.857681 
	C59.380432,120.399834 53.873257,136.043716 47.982307,152.777771 
	C47.417053,150.667908 46.454872,149.090332 46.743019,147.789764 
	C47.775303,143.130493 48.905350,138.440277 50.608437,133.995499 
	C52.767654,128.360275 55.619843,122.994629 57.981991,117.431549 
	C59.291050,114.348602 60.210209,111.100098 61.602661,107.063675 
	C59.916088,107.925026 58.130947,108.836716 55.997246,109.829796 
	C56.413837,108.734695 57.178989,107.558212 58.041084,106.030533 
z"/>
<path fill="#D69E85" opacity="1.000000" stroke="none" 
	d="
M121.004326,64.952728 
	C120.765106,63.601494 120.349541,62.251938 120.336655,60.898548 
	C120.323975,59.566433 120.719620,58.230431 120.969971,56.687389 
	C118.417862,53.444069 116.424904,49.802761 119.742546,45.535973 
	C120.696373,46.747124 121.316475,47.795422 121.936569,48.843719 
	C121.288437,49.170887 120.640312,49.498055 119.992180,49.825226 
	C120.678543,50.247089 121.349220,50.991402 122.054428,51.025688 
	C123.671265,51.104294 125.304947,50.836494 126.962799,51.519180 
	C126.566872,55.504189 126.139938,58.679352 125.486298,61.770348 
	C124.713234,61.834602 124.166862,61.983025 123.620499,62.131447 
	C124.083382,62.438431 124.546272,62.745407 124.983276,63.375008 
	C124.332077,64.498848 123.706757,65.300064 122.911163,65.833977 
	C122.162033,65.362022 121.583183,65.157372 121.004326,64.952728 
z"/>
<path fill="#1697AF" opacity="1.000000" stroke="none" 
	d="
M100.289368,84.387039 
	C103.612083,86.504303 106.934799,88.621567 110.243858,90.730133 
	C103.286140,95.514473 102.412300,95.317604 97.139694,87.129372 
	C98.267464,85.822266 99.278419,85.104652 100.289368,84.387039 
z"/>
<path fill="#E3DDD3" opacity="1.000000" stroke="none" 
	d="
M123.081436,66.101288 
	C123.706757,65.300064 124.332077,64.498848 125.210571,63.254700 
	C125.546829,62.492683 125.629913,62.173599 125.712997,61.854515 
	C126.139938,58.679352 126.566872,55.504189 127.028038,51.861641 
	C130.849869,56.385132 128.833206,61.379261 126.946365,66.292946 
	C126.078201,68.553787 124.790550,70.653549 123.362160,72.963531 
	C122.617126,71.397156 122.203056,69.693596 121.475632,67.712616 
	C121.425613,67.015076 121.688957,66.594948 122.234375,66.153252 
	C122.704781,66.121552 122.893105,66.111420 123.081436,66.101288 
z"/>
<path fill="#EAEDED" opacity="1.000000" stroke="none" 
	d="
M99.983414,84.150330 
	C99.278419,85.104652 98.267464,85.822266 97.061386,86.787560 
	C94.261177,84.116707 90.866745,81.385757 94.530190,76.812798 
	C96.288231,79.238068 97.982849,81.575851 99.983414,84.150330 
z"/>
<path fill="#0D1317" opacity="1.000000" stroke="none" 
	d="
M121.987228,88.016571 
	C120.752350,89.847511 119.517479,91.678452 118.282608,93.509392 
	C117.915848,93.262260 117.549095,93.015121 117.182335,92.767990 
	C119.388939,86.316292 119.388939,86.316292 121.946136,87.641151 
	C122.000290,88.000015 121.987228,88.016579 121.987228,88.016571 
z"/>
<path fill="#0D1317" opacity="1.000000" stroke="none" 
	d="
M128.659210,85.665649 
	C124.724976,86.791138 124.768127,84.085442 124.406021,81.736176 
	C124.800026,81.424500 125.194031,81.112816 125.588028,80.801140 
	C126.606606,82.316170 127.625183,83.831200 128.659210,85.665649 
z"/>
<path fill="#907C78" opacity="1.000000" stroke="none" 
	d="
M122.231857,48.829449 
	C121.316475,47.795422 120.696373,46.747124 120.094467,45.386787 
	C121.120995,45.058826 122.129326,45.042908 123.515442,45.036705 
	C123.437874,46.302673 122.982513,47.558926 122.231857,48.829449 
z"/>
<path fill="#0D1317" opacity="1.000000" stroke="none" 
	d="
M131.626526,91.027458 
	C130.523193,91.180710 128.985428,91.315788 127.138908,91.260452 
	C128.284134,91.049782 129.738113,91.029533 131.626526,91.027458 
z"/>
<path fill="#0D1317" opacity="1.000000" stroke="none" 
	d="
M145.013855,90.987137 
	C144.778976,91.480034 144.559555,92.004005 144.270126,92.485939 
	C144.241180,92.534126 143.786819,92.326813 143.529892,92.238068 
	C143.841141,91.842369 144.152405,91.446671 144.751312,91.014603 
	C145.038956,90.978233 145.009583,91.006371 145.013855,90.987137 
z"/>
<path fill="#0D1317" opacity="1.000000" stroke="none" 
	d="
M138.805023,92.763847 
	C138.397034,92.868553 137.805801,92.711670 137.007416,92.321487 
	C137.407440,92.226212 138.014618,92.364235 138.805023,92.763847 
z"/>
<path fill="#0D1317" opacity="1.000000" stroke="none" 
	d="
M122.468262,80.450035 
	C122.523582,80.417160 122.412941,80.482910 122.468262,80.450035 
z"/>
<path fill="#0D1317" opacity="1.000000" stroke="none" 
	d="
M122.008583,87.993416 
	C122.134674,88.134712 122.252472,88.282608 122.370270,88.430504 
	C122.282188,88.383255 122.194099,88.335999 122.046623,88.152664 
	C121.987228,88.016579 122.000290,88.000015 122.008583,87.993416 
z"/>
<path fill="#0D1317" opacity="1.000000" stroke="none" 
	d="
M132.795837,90.577301 
	C132.922852,90.691559 132.517502,90.970604 132.276978,91.022278 
	C132.247253,90.870323 132.458038,90.666679 132.795837,90.577301 
z"/>
<path fill="#0CA0C0" opacity="1.000000" stroke="none" 
	d="
M117.206131,97.494095 
	C116.946991,97.605209 116.611977,97.439056 116.198654,96.990814 
	C116.456978,96.878098 116.793617,97.047462 117.206131,97.494095 
z"/>
<path fill="#EEAE1E" opacity="1.000000" stroke="none" 
	d="
M131.090851,135.279388 
	C138.834976,133.657318 146.770966,132.297668 154.730682,131.094971 
	C162.415085,129.933853 170.123962,128.934616 178.297119,127.812431 
	C187.455276,129.247192 196.127869,130.800095 204.827728,132.181152 
	C207.537369,132.611298 208.263657,133.933136 208.238693,136.550964 
	C208.097458,151.363739 208.116226,166.178055 207.995010,181.446625 
	C207.909515,181.901428 207.932770,181.921646 207.517914,181.945160 
	C204.263519,182.603546 201.423965,183.238403 198.584412,183.873260 
	C198.223999,183.857697 197.863602,183.842133 196.887253,183.884796 
	C195.627747,184.222107 194.984192,184.501175 194.340622,184.780243 
	C193.450348,184.817642 192.560089,184.855042 190.936340,184.964386 
	C185.959335,185.982468 181.715805,186.928619 177.472260,187.874771 
	C177.472260,187.874771 177.237595,187.726593 176.728973,187.773712 
	C174.670776,188.170746 173.121185,188.520630 171.571609,188.870529 
	C170.908432,188.889206 170.245255,188.907867 168.869904,189.040619 
	C164.215073,189.848907 160.272430,190.543076 156.329773,191.237259 
	C155.673553,189.958694 154.443558,188.677628 154.449127,187.401947 
	C154.510437,173.332230 154.752579,159.263168 154.973709,145.194382 
	C155.023788,142.008026 153.614197,140.529587 150.379120,139.926651 
	C143.971542,138.732422 137.650116,137.075897 131.090851,135.279388 
z"/>
<path fill="#E6A183" opacity="1.000000" stroke="none" 
	d="
M127.194008,178.503937 
	C127.143394,178.238937 126.998932,178.043228 126.492653,177.582443 
	C125.955582,176.962036 125.686462,176.675980 125.417351,176.389908 
	C125.234886,176.909348 125.052422,177.428787 124.869957,177.948227 
	C124.051857,182.677902 123.233757,187.407562 122.527626,191.489853 
	C118.312317,190.078705 113.720078,189.118484 109.718651,187.027618 
	C106.229424,185.204361 102.212212,182.650742 100.718803,179.375443 
	C99.761459,177.275803 102.959511,173.281479 105.071930,170.117279 
	C107.568970,170.045349 109.288887,169.992645 111.335938,170.017059 
	C112.103821,170.036194 112.544579,169.978226 113.424683,169.981918 
	C115.923836,169.938568 117.983635,169.833557 120.410477,169.770737 
	C121.513062,169.835617 122.248619,169.858307 123.302689,170.011520 
	C124.942871,170.488205 126.264549,170.834381 127.782089,171.466187 
	C130.733353,174.842850 133.488770,177.933884 136.775711,181.621185 
	C134.178787,181.769043 132.572510,181.860489 130.966232,181.951935 
	C130.966232,181.951935 130.983093,182.024246 130.803406,181.768814 
	C129.480484,180.510239 128.337250,179.507095 127.194008,178.503937 
z"/>
<path fill="#0A0B0B" opacity="1.000000" stroke="none" 
	d="
M127.586227,171.180542 
	C126.264549,170.834381 124.942871,170.488205 123.121552,169.783401 
	C121.762421,169.526016 120.902931,169.627274 120.043442,169.728531 
	C117.983635,169.833557 115.923836,169.938568 113.274673,169.770935 
	C112.126472,169.645493 111.567635,169.792709 111.008804,169.939941 
	C109.288887,169.992645 107.568970,170.045349 105.424759,170.021790 
	C104.999725,169.524948 104.998985,169.104340 104.999908,168.368332 
	C111.752136,167.993835 118.502708,167.934753 125.843002,168.233353 
	C127.056297,168.678482 127.679871,168.765945 128.303436,168.853424 
	C128.686401,168.910522 129.069366,168.967606 129.627594,169.502151 
	C129.063995,170.379913 128.325119,170.780228 127.586227,171.180542 
z"/>
<path fill="#14100D" opacity="1.000000" stroke="none" 
	d="
M127.054703,186.465179 
	C133.556412,187.503448 140.149521,188.902481 146.960663,190.613342 
	C140.501160,189.558746 133.823639,188.192352 127.054703,186.465179 
z"/>
<path fill="#14100D" opacity="1.000000" stroke="none" 
	d="
M177.968277,187.907486 
	C181.715805,186.928619 185.959335,185.982468 190.613037,185.068909 
	C191.385590,185.595612 191.748001,186.089691 192.518692,187.140396 
	C187.531830,187.424179 182.998062,187.682190 177.968277,187.907486 
z"/>
<path fill="#14100D" opacity="1.000000" stroke="none" 
	d="
M156.226868,191.422836 
	C160.272430,190.543076 164.215073,189.848907 168.562256,189.170547 
	C164.896805,190.120392 160.826828,191.054413 156.310364,191.966095 
	C155.863846,191.943756 156.123947,191.608414 156.226868,191.422836 
z"/>
<path fill="#14100D" opacity="1.000000" stroke="none" 
	d="
M199.009552,183.910919 
	C201.423965,183.238403 204.263519,182.603546 207.503876,181.940613 
	C207.423706,182.719437 206.981339,184.188416 206.455139,184.219101 
	C204.128159,184.354736 201.777069,184.076813 199.009552,183.910919 
z"/>
<path fill="#1E130E" opacity="1.000000" stroke="none" 
	d="
M127.144745,178.955322 
	C128.337250,179.507095 129.480484,180.510239 130.840332,181.764877 
	C130.005524,182.026459 128.954117,182.036545 127.511169,182.085541 
	C127.111572,181.218552 127.103523,180.312622 127.144745,178.955322 
z"/>
<path fill="#111011" opacity="1.000000" stroke="none" 
	d="
M51.075211,180.376907 
	C52.802917,180.526764 54.606998,181.048752 56.663559,181.805786 
	C54.994553,181.610214 53.073071,181.179626 51.075211,180.376907 
z"/>
<path fill="#14100D" opacity="1.000000" stroke="none" 
	d="
M171.999603,188.909546 
	C173.121185,188.520630 174.670776,188.170746 176.621460,187.861450 
	C175.490921,188.250885 173.959274,188.599731 171.999603,188.909546 
z"/>
<path fill="#14100D" opacity="1.000000" stroke="none" 
	d="
M148.236694,191.291107 
	C148.981552,191.161819 149.951660,191.294769 151.044937,191.677826 
	C150.266052,191.803070 149.364014,191.678192 148.236694,191.291107 
z"/>
<path fill="#14100D" opacity="1.000000" stroke="none" 
	d="
M126.855095,182.206329 
	C127.026489,183.117859 126.927711,184.179840 126.859009,185.640839 
	C126.787697,184.812164 126.686310,183.584473 126.855095,182.206329 
z"/>
<path fill="#0A0B0B" opacity="1.000000" stroke="none" 
	d="
M99.058487,172.846436 
	C98.853195,172.503693 98.893631,172.074524 99.084900,171.357483 
	C99.258568,171.633072 99.281395,172.196533 99.058487,172.846436 
z"/>
<path fill="#111011" opacity="1.000000" stroke="none" 
	d="
M60.219757,183.251556 
	C60.666759,183.107330 61.341484,183.237717 62.274918,183.607910 
	C61.838242,183.740555 61.142860,183.633362 60.219757,183.251556 
z"/>
<path fill="#14100D" opacity="1.000000" stroke="none" 
	d="
M194.709656,184.829422 
	C194.984192,184.501175 195.627747,184.222107 196.632599,183.986908 
	C196.355484,184.313385 195.717087,184.595993 194.709656,184.829422 
z"/>
<path fill="#111011" opacity="1.000000" stroke="none" 
	d="
M71.288437,185.472031 
	C71.674080,185.319077 72.293900,185.378372 73.154297,185.649994 
	C72.770790,185.802948 72.146698,185.743607 71.288437,185.472031 
z"/>
<path fill="#1E130E" opacity="1.000000" stroke="none" 
	d="
M125.252426,177.931473 
	C125.052422,177.428787 125.234886,176.909348 125.417351,176.389908 
	C125.686462,176.675980 125.955582,176.962036 126.310242,177.538712 
	C126.142159,177.857773 125.888527,177.886246 125.252426,177.931473 
z"/>
<path fill="#14100D" opacity="1.000000" stroke="none" 
	d="
M169.548630,191.468903 
	C169.580246,191.522461 169.517014,191.415329 169.548630,191.468903 
z"/>
<path fill="#111011" opacity="1.000000" stroke="none" 
	d="
M57.194370,182.303452 
	C57.395988,182.155563 57.810032,182.241852 58.423035,182.581680 
	C58.216934,182.736008 57.811867,182.636810 57.194370,182.303452 
z"/>
<path fill="#111011" opacity="1.000000" stroke="none" 
	d="
M49.221367,179.396729 
	C49.388405,179.282013 49.733574,179.375290 50.265385,179.671295 
	C50.101181,179.784256 49.750336,179.694489 49.221367,179.396729 
z"/>
<path fill="#0A0B0B" opacity="1.000000" stroke="none" 
	d="
M102.001976,169.002533 
	C101.909767,169.039017 101.815575,169.072998 101.858170,169.051529 
	C101.994957,168.996094 102.000000,169.000000 102.001976,169.002533 
z"/>
<path fill="#FEFEFE" opacity="1.000000" stroke="none" 
	d="
M43.750771,107.157928 
	C44.346943,107.900978 44.710636,108.806114 45.074326,109.711250 
	C44.404343,109.646904 43.734364,109.582558 43.008224,109.205627 
	C43.140808,108.368706 43.329548,107.844360 43.750771,107.157928 
z"/>
<path fill="#FEFEFE" opacity="1.000000" stroke="none" 
	d="
M44.361359,88.985802 
	C43.956810,88.837997 43.757233,88.621437 43.609085,88.374069 
	C43.585762,88.335136 43.795326,88.156731 44.106758,87.940903 
	C44.497478,88.067818 44.703503,88.283066 44.841419,88.535522 
	C44.873726,88.594666 44.675468,88.779755 44.361359,88.985802 
z"/>
<path fill="#111011" opacity="1.000000" stroke="none" 
	d="
M99.540344,28.008600 
	C99.455009,30.473791 99.003357,32.950039 98.375099,35.755428 
	C96.987015,30.690563 97.110687,29.668091 99.540344,28.008600 
z"/>
<path fill="#111011" opacity="1.000000" stroke="none" 
	d="
M99.070404,42.302483 
	C98.713211,42.860161 98.220329,43.098495 97.461548,43.409847 
	C97.119041,42.774830 97.042442,42.066792 96.965836,41.358753 
	C97.622131,41.566879 98.278427,41.775005 99.070404,42.302483 
z"/>
<path fill="#220602" opacity="1.000000" stroke="none" 
	d="
M93.033447,55.643356 
	C92.741875,56.176716 92.441299,56.367447 92.054237,56.324745 
	C91.967758,55.121132 91.967758,54.150951 91.967758,53.180775 
	C92.175644,53.149605 92.383530,53.118435 92.591408,53.087265 
	C92.735748,53.825089 92.880089,54.562912 93.033447,55.643356 
z"/>
<path fill="#111011" opacity="1.000000" stroke="none" 
	d="
M99.155228,38.391628 
	C99.460770,38.100067 99.888535,38.039131 100.640350,37.994400 
	C100.741486,38.462048 100.518570,38.913483 100.295647,39.364922 
	C99.956245,39.117367 99.616844,38.869808 99.155228,38.391628 
z"/>
<path fill="#111011" opacity="1.000000" stroke="none" 
	d="
M101.894989,41.828823 
	C101.836716,42.065414 101.674133,42.134659 101.248306,42.172684 
	C101.253601,41.981464 101.522141,41.821472 101.894989,41.828823 
z"/>
<path fill="#1DA2B9" opacity="1.000000" stroke="none" 
	d="
M74.949768,98.891006 
	C76.435867,98.265953 78.329651,97.688286 80.592773,97.135567 
	C79.093895,97.753143 77.225670,98.345772 74.949768,98.891006 
z"/>
<path fill="#DEE2CD" opacity="1.000000" stroke="none" 
	d="
M130.340485,145.756317 
	C135.933975,146.340317 141.297562,147.169220 146.597885,148.295807 
	C147.582443,148.505081 148.938599,149.842880 149.042969,150.780136 
	C149.363602,153.659119 149.159714,156.596512 149.159714,159.967133 
	C143.241760,158.793884 138.032227,157.959442 132.958511,156.613068 
	C131.719757,156.284332 130.340652,154.395020 130.062164,153.014236 
	C129.616089,150.802567 130.035294,148.416382 130.340485,145.756317 
z"/>
<path fill="#D7AE54" opacity="1.000000" stroke="none" 
	d="
M113.114372,133.321381 
	C116.856720,133.564163 120.541328,134.278427 124.638748,135.032928 
	C125.051552,138.187439 125.051552,141.301712 125.051552,145.250214 
	C120.788124,144.706680 117.275871,144.258926 113.056625,143.721039 
	C113.056625,140.305252 113.056625,137.049042 113.114372,133.321381 
z"/>
<path fill="#1E130E" opacity="1.000000" stroke="none" 
	d="
M127.782089,171.466187 
	C128.325119,170.780228 129.063995,170.379913 129.876251,169.655579 
	C132.852600,172.865173 135.873138,176.314758 138.526016,180.027084 
	C138.904343,180.556473 137.630646,183.287292 136.896927,183.389664 
	C135.056061,183.646515 133.086487,182.980804 131.067383,182.318512 
	C132.572510,181.860489 134.178787,181.769043 136.775711,181.621185 
	C133.488770,177.933884 130.733353,174.842850 127.782089,171.466187 
z"/>
<path fill="#1E130E" opacity="1.000000" stroke="none" 
	d="
M128.064209,168.651367 
	C127.679871,168.765945 127.056297,168.678482 126.224930,168.345764 
	C126.619743,168.216782 127.222359,168.333054 128.064209,168.651367 
z"/>
<path fill="#241712" opacity="1.000000" stroke="none" 
	d="
M111.532616,50.759247 
	C107.105392,52.284908 106.101807,49.539597 105.011505,45.847595 
	C108.491722,45.847595 111.748466,45.847595 115.005203,45.847595 
	C115.245361,46.271679 115.485527,46.695763 115.725685,47.119846 
	C114.463356,48.321083 113.201027,49.522320 111.532616,50.759247 
z"/>
<path fill="#EDF1F3" opacity="1.000000" stroke="none" 
	d="
M121.952301,66.174820 
	C121.688957,66.594948 121.425613,67.015076 121.069931,67.664124 
	C119.625175,67.923096 118.272758,67.953148 116.319496,67.738548 
	C115.130409,67.230202 114.542168,66.966507 113.953926,66.702812 
	C114.467628,66.431381 114.981331,66.159950 116.198395,65.917358 
	C118.585274,66.022400 120.268791,66.098610 121.952301,66.174820 
z"/>
<path fill="#A09F9E" opacity="1.000000" stroke="none" 
	d="
M122.234383,66.153244 
	C120.268791,66.098610 118.585274,66.022400 116.488541,65.860840 
	C117.467407,65.514084 118.859474,65.252678 120.627937,64.972000 
	C121.583183,65.157372 122.162033,65.362022 122.911163,65.833969 
	C122.893105,66.111420 122.704781,66.121552 122.234383,66.153244 
z"/>
<path fill="#564A48" opacity="1.000000" stroke="none" 
	d="
M113.903122,67.039299 
	C114.542168,66.966507 115.130409,67.230202 115.913109,67.755478 
	C115.355820,67.803299 114.604073,67.589539 113.903122,67.039299 
z"/>
<path fill="#E6A285" opacity="1.000000" stroke="none" 
	d="
M125.486298,61.770348 
	C125.629913,62.173599 125.546829,62.492683 125.236450,62.932076 
	C124.546272,62.745407 124.083382,62.438431 123.620499,62.131447 
	C124.166862,61.983025 124.713234,61.834602 125.486298,61.770348 
z"/>
<path fill="#1E130E" opacity="1.000000" stroke="none" 
	d="
M120.410477,169.770737 
	C120.902931,169.627274 121.762421,169.526016 122.803040,169.652878 
	C122.248619,169.858307 121.513062,169.835617 120.410477,169.770737 
z"/>
<path fill="#0E0D0D" opacity="1.000000" stroke="none" 
	d="
M111.335938,170.017059 
	C111.567635,169.792709 112.126472,169.645493 112.835320,169.709259 
	C112.544579,169.978226 112.103821,170.036194 111.335938,170.017059 
z"/>
</svg>